<svg width="20" height="20" xmlns="http://www.w3.org/2000/svg" xmlns:xlink="http://www.w3.org/1999/xlink"><defs><path d="M10.566 1.9v11.42a.561.561 0 0 1-.566.557.561.561 0 0 1-.566-.556V1.9L7.007 4.286a.573.573 0 0 1-.8 0 .55.55 0 0 1 0-.787L9.6.163a.573.573 0 0 1 .8 0L13.793 3.5a.55.55 0 0 1 0 .787.573.573 0 0 1-.8 0L10.566 1.9zm4.717 6.597a.561.561 0 0 1-.566-.556c0-.308.253-.557.566-.557h2.642c1.145 0 2.075.914 2.075 2.04v8.535C20 19.086 19.07 20 17.925 20H2.075C.93 20 0 19.086 0 17.96V9.424c0-1.127.93-2.04 2.075-2.04h2.642c.313 0 .566.248.566.556a.561.561 0 0 1-.566.556H2.075a.936.936 0 0 0-.943.928v8.534c0 .512.423.928.943.928h15.85c.52 0 .943-.416.943-.928V9.425a.936.936 0 0 0-.943-.928h-2.642z" id="a"/></defs><g fill="none" fill-rule="evenodd"><mask id="b" fill="#fff"><use xlink:href="#a"/></mask><use fill="#455065" fill-rule="nonzero" xlink:href="#a"/><g mask="url(#b)" fill="#687089"><path d="M0 0h20v20H0z"/></g></g></svg>