<svg xmlns="http://www.w3.org/2000/svg" xmlns:xlink="http://www.w3.org/1999/xlink" width="49" height="50"><defs><circle id="a" cx="22.5" cy="22.5" r="22.5"/><path d="M27.356 28.04c-.448-.54-1-.992-1.633-1.315l-4.678-2.378a2.405 2.405 0 0 1-1.29-1.895l-.067-.644c-.06-.576.06-1.166.392-1.632a4.745 4.745 0 0 0 .854-2.225l.087-.781c.675 0 1.253-.49 1.38-1.167l.248-1.31a1.445 1.445 0 0 0-.886-1.618l-.27-.105.25-2.234c.317-2.82-1.84-5.296-4.615-5.296h-1.62c-2.775 0-4.93 2.475-4.615 5.296l.252 2.234-.27.105a1.44 1.44 0 0 0-.885 1.617l.245 1.311a1.415 1.415 0 0 0 1.381 1.167l.088.78c.093.833.4 1.59.853 2.226.331.466.452 1.056.392 1.63l-.068.646a2.397 2.397 0 0 1-1.289 1.895l-4.678 2.378A5.174 5.174 0 0 0 5.28 28.04s2.919 5 11.04 5c8.118 0 11.036-5 11.036-5" id="c"/><circle id="d" cx="6" cy="6" r="6"/></defs><g fill="none" fill-rule="evenodd"><g transform="translate(2 2)"><mask id="b" fill="#fff"><use xlink:href="#a"/></mask><circle stroke="#FFF" stroke-width="1.5" cx="22.5" cy="22.5" r="23.25"/><g mask="url(#b)"><path fill="#375DD5" d="M-17-3h70v72h-70z"/><path fill="#687089" d="M-17-3h70v72h-70z"/></g><g mask="url(#b)"><use fill="#FFF" xlink:href="#c" transform="translate(6 5)"/></g></g><g transform="translate(34 36)"><mask id="e" fill="#fff"><use xlink:href="#d"/></mask><use stroke="#FFF" stroke-width="3" fill="#D8D8D8" xlink:href="#d"/><g mask="url(#e)"><path fill="#375DD5" d="M-21-10h51v32h-51z"/><path fill="#687089" d="M-21-10h51v32h-51z"/></g></g></g></svg>