<svg width="20" height="18" xmlns="http://www.w3.org/2000/svg" xmlns:xlink="http://www.w3.org/1999/xlink"><defs><path d="M14.1 1.8c3.143 0 5.7 2.48 5.7 5.547 0 3.055-1.816 5.878-4.812 8.42a26.136 26.136 0 0 1-4.722 3.17.6.6 0 0 1-.532 0 12.92 12.92 0 0 1-.417-.219 26.136 26.136 0 0 1-4.305-2.951C2.016 13.225.2 10.402.2 7.347.2 4.279 2.756 1.8 5.9 1.8c1.573 0 3.039.627 4.1 1.699A5.754 5.754 0 0 1 14.1 1.8zm-3.992 15.865a24.952 24.952 0 0 0 4.104-2.813c2.754-2.337 4.388-4.877 4.388-7.505C18.6 4.95 16.589 3 14.1 3a4.54 4.54 0 0 0-3.623 1.775.6.6 0 0 1-.954 0A4.544 4.544 0 0 0 5.901 3C3.41 3 1.4 4.95 1.4 7.347c0 2.628 1.634 5.168 4.388 7.505A24.952 24.952 0 0 0 10 17.723l.108-.058z" id="a"/></defs><g transform="translate(0 -1)" fill="none" fill-rule="evenodd"><mask id="b" fill="#fff"><use xlink:href="#a"/></mask><use fill="#455065" fill-rule="nonzero" xlink:href="#a"/><g mask="url(#b)" fill="#687089"><path d="M0 0h20v20H0z"/></g></g></svg>